<?xml version="1.0" encoding="UTF-8"?>
<svg width="5775px" height="3919px" viewBox="0 0 5775 3919" version="1.1" xmlns="http://www.w3.org/2000/svg" xmlns:xlink="http://www.w3.org/1999/xlink">
    <!-- Generator: Sketch 54.1 (76490) - https://sketchapp.com -->
    <title>Artboard</title>
    <desc>Created with Sketch.</desc>
    <g id="Artboard" stroke="none" stroke-width="1" fill="none" fill-rule="evenodd">
        <g id="login" transform="translate(732.000000, 205.000000)">
            <g id="state" transform="translate(1451.000000, 0.000000)">
                <path d="M82,0.5 C36.9887929,0.5 0.5,36.9887929 0.5,82 C0.5,127.011207 36.9887929,163.5 82,163.5 L918,163.5 C963.011207,163.5 999.5,127.011207 999.5,82 C999.5,36.9887929 963.011207,0.5 918,0.5 L82,0.5 Z" id="Rectangle" stroke="#979797" stroke-width="1" fill="#BAC1CF" fill-rule="evenodd"></path>
                <text id="state-name" font-family="AndaleMono, Andale Mono" font-size="61" font-weight="normal" letter-spacing="0.7870969" fill="#000000">
                    <tspan x="425.713892" y="103">idle</tspan>
                </text>
            </g>
            <g id="state" transform="translate(1451.000000, 551.000000)">
                <path d="M82,0.5 C36.9887929,0.5 0.5,36.9887929 0.5,82 C0.5,127.011207 36.9887929,163.5 82,163.5 L918,163.5 C963.011207,163.5 999.5,127.011207 999.5,82 C999.5,36.9887929 963.011207,0.5 918,0.5 L82,0.5 Z" id="Rectangle" stroke="#979797" stroke-width="1" fill="#BAC1CF" fill-rule="evenodd"></path>
                <text id="state-name" font-family="AndaleMono, Andale Mono" font-size="61" font-weight="normal" letter-spacing="0.7870969" fill="#000000">
                    <tspan x="257.445149" y="103">login attempt</tspan>
                </text>
            </g>
            <g id="state" transform="translate(519.000000, 1104.000000)">
                <path d="M82,0.5 C36.9887929,0.5 0.5,36.9887929 0.5,82 C0.5,127.011207 36.9887929,163.5 82,163.5 L918,163.5 C963.011207,163.5 999.5,127.011207 999.5,82 C999.5,36.9887929 963.011207,0.5 918,0.5 L82,0.5 Z" id="Rectangle" stroke="#979797" stroke-width="1" fill="#BAC1CF" fill-rule="evenodd"></path>
                <text id="state-name" font-family="AndaleMono, Andale Mono" font-size="61" font-weight="normal" letter-spacing="0.7870969" fill="#000000">
                    <tspan x="163.962515" y="103">2FA method pending</tspan>
                </text>
            </g>
            <g id="state" transform="translate(519.000000, 1655.000000)">
                <path d="M82,0.5 C36.9887929,0.5 0.5,36.9887929 0.5,82 C0.5,127.011207 36.9887929,163.5 82,163.5 L918,163.5 C963.011207,163.5 999.5,127.011207 999.5,82 C999.5,36.9887929 963.011207,0.5 918,0.5 L82,0.5 Z" id="Rectangle" stroke="#979797" stroke-width="1" fill="#BAC1CF" fill-rule="evenodd"></path>
                <text id="state-name" font-family="AndaleMono, Andale Mono" font-size="61" font-weight="normal" letter-spacing="0.7870969" fill="#000000">
                    <tspan x="294.838203" y="103">2FA pending</tspan>
                </text>
            </g>
            <g id="state" transform="translate(519.000000, 2207.000000)">
                <path d="M82,0.5 C36.9887929,0.5 0.5,36.9887929 0.5,82 C0.5,127.011207 36.9887929,163.5 82,163.5 L918,163.5 C963.011207,163.5 999.5,127.011207 999.5,82 C999.5,36.9887929 963.011207,0.5 918,0.5 L82,0.5 Z" id="Rectangle" stroke="#979797" stroke-width="1" fill="#BAC1CF" fill-rule="evenodd"></path>
                <text id="state-name" font-family="AndaleMono, Andale Mono" font-size="61" font-weight="normal" letter-spacing="0.7870969" fill="#000000">
                    <tspan x="201.355569" y="103">pending 2FA code</tspan>
                </text>
            </g>
            <g id="state" transform="translate(2451.000000, 1104.000000)">
                <path d="M82,0.5 C36.9887929,0.5 0.5,36.9887929 0.5,82 C0.5,127.011207 36.9887929,163.5 82,163.5 L918,163.5 C963.011207,163.5 999.5,127.011207 999.5,82 C999.5,36.9887929 963.011207,0.5 918,0.5 L82,0.5 Z" id="Rectangle" stroke="#979797" stroke-width="1" fill="#BAC1CF" fill-rule="evenodd"></path>
                <text id="state-name" font-family="AndaleMono, Andale Mono" font-size="61" font-weight="normal" letter-spacing="0.7870969" fill="#000000">
                    <tspan x="89.1764068" y="103">pending challenge code</tspan>
                </text>
            </g>
            <g id="state" transform="translate(1452.000000, 2795.000000)">
                <path d="M82,0.5 C36.9887929,0.5 0.5,36.9887929 0.5,82 C0.5,127.011207 36.9887929,163.5 82,163.5 L918,163.5 C963.011207,163.5 999.5,127.011207 999.5,82 C999.5,36.9887929 963.011207,0.5 918,0.5 L82,0.5 Z" id="Rectangle" stroke="#979797" stroke-width="1" fill="#BAC1CF" fill-rule="evenodd"></path>
                <text id="state-name" font-family="AndaleMono, Andale Mono" font-size="61" font-weight="normal" letter-spacing="0.7870969" fill="#000000">
                    <tspan x="89.1764068" y="103">pending authentication</tspan>
                </text>
            </g>
            <g id="state" transform="translate(1452.000000, 3346.000000)">
                <path d="M82,0.5 C36.9887929,0.5 0.5,36.9887929 0.5,82 C0.5,127.011207 36.9887929,163.5 82,163.5 L918,163.5 C963.011207,163.5 999.5,127.011207 999.5,82 C999.5,36.9887929 963.011207,0.5 918,0.5 L82,0.5 Z" id="Rectangle" stroke="#979797" stroke-width="1" fill="#BAC1CF" fill-rule="evenodd"></path>
                <text id="state-name" font-family="AndaleMono, Andale Mono" font-size="61" font-weight="normal" letter-spacing="0.7870969" fill="#000000">
                    <tspan x="257.445149" y="103">authenticated</tspan>
                </text>
            </g>
            <path id="Line" d="M1946,495.277778 L1946,164 C1946,160.962434 1948.46243,158.5 1951.5,158.5 C1954.53757,158.5 1957,160.962434 1957,164 L1957,495.277778 L1977.48059,495.277778 C1979.4243,495.277778 1981,496.853473 1981,498.797192 C1981,499.343564 1980.87279,499.882433 1980.62845,500.371123 L1954.64825,552.331522 C1953.77899,554.070037 1951.66497,554.77471 1949.92646,553.905452 C1949.24535,553.564901 1948.69308,553.012625 1948.35253,552.331522 L1922.37233,500.371123 C1921.50307,498.632607 1922.20774,496.51859 1923.94626,495.649332 C1924.43495,495.404987 1924.97381,495.277778 1925.52019,495.277778 L1946,495.277778 Z" fill="#99C34F" fill-rule="nonzero" opacity="0.394205729"></path>
            <path id="Line-Copy-4" d="M1947,3290.27778 L1947,2959 C1947,2955.96243 1949.46243,2953.5 1952.5,2953.5 C1955.53757,2953.5 1958,2955.96243 1958,2959 L1958,3290.27778 L1978.48059,3290.27778 C1980.4243,3290.27778 1982,3291.85347 1982,3293.79719 C1982,3294.34356 1981.87279,3294.88243 1981.62845,3295.37112 L1955.64825,3347.33152 C1954.77899,3349.07004 1952.66497,3349.77471 1950.92646,3348.90545 C1950.24535,3348.5649 1949.69308,3348.01263 1949.35253,3347.33152 L1923.37233,3295.37112 C1922.50307,3293.63261 1923.20774,3291.51859 1924.94626,3290.64933 C1925.43495,3290.40499 1925.97381,3290.27778 1926.52019,3290.27778 L1947,3290.27778 Z" fill="#99C34F" fill-rule="nonzero" opacity="0.394205729"></path>
            <path id="Line" d="M1015,1601.27778 L1015,1270 C1015,1266.96243 1017.46243,1264.5 1020.5,1264.5 C1023.53757,1264.5 1026,1266.96243 1026,1270 L1026,1601.27778 L1046.48059,1601.27778 C1048.4243,1601.27778 1050,1602.85347 1050,1604.79719 C1050,1605.34356 1049.87279,1605.88243 1049.62845,1606.37112 L1023.64825,1658.33152 C1022.77899,1660.07004 1020.66497,1660.77471 1018.92646,1659.90545 C1018.24535,1659.5649 1017.69308,1659.01263 1017.35253,1658.33152 L991.372325,1606.37112 C990.503068,1604.63261 991.20774,1602.51859 992.946256,1601.64933 C993.434945,1601.40499 993.973814,1601.27778 994.520186,1601.27778 L1015,1601.27778 Z" fill="#99C34F" fill-rule="nonzero" opacity="0.394205729"></path>
            <path id="Line-Copy-2" d="M1015,2150.27778 L1015,1819 C1015,1815.96243 1017.46243,1813.5 1020.5,1813.5 C1023.53757,1813.5 1026,1815.96243 1026,1819 L1026,2150.27778 L1046.48059,2150.27778 C1048.4243,2150.27778 1050,2151.85347 1050,2153.79719 C1050,2154.34356 1049.87279,2154.88243 1049.62845,2155.37112 L1023.64825,2207.33152 C1022.77899,2209.07004 1020.66497,2209.77471 1018.92646,2208.90545 C1018.24535,2208.5649 1017.69308,2208.01263 1017.35253,2207.33152 L991.372325,2155.37112 C990.503068,2153.63261 991.20774,2151.51859 992.946256,2150.64933 C993.434945,2150.40499 993.973814,2150.27778 994.520186,2150.27778 L1015,2150.27778 Z" fill="#99C34F" fill-rule="nonzero" opacity="0.394205729"></path>
            <path id="Line-Copy-3" d="M1898.99134,2776.96397 L1016.2255,2376.00766 C1013.45985,2374.75149 1012.23617,2371.49115 1013.49234,2368.7255 C1014.74851,2365.95985 1018.00885,2364.73617 1020.7745,2365.99234 L1903.54035,2766.94865 L1912.01,2748.30142 C1912.81382,2746.5317 1914.90009,2745.74868 1916.66981,2746.55249 C1917.16727,2746.77844 1917.6053,2747.11711 1917.94919,2747.54168 L1954.51427,2792.68422 C1955.73768,2794.19462 1955.50503,2796.41081 1953.99463,2797.63422 C1953.4029,2798.11352 1952.67167,2798.38797 1951.9107,2798.41637 L1893.85762,2800.58291 C1891.91526,2800.6554 1890.28189,2799.13956 1890.20941,2797.19719 C1890.18903,2796.6512 1890.29605,2796.10796 1890.522,2795.6105 L1898.99134,2776.96397 Z" fill="#99C34F" fill-rule="nonzero" opacity="0.394205729"></path>
            <path id="Line-Copy-3" d="M2001.1447,2768.16691 L2945.5,2367.35946 L2945.5,1270 C2945.5,1266.96243 2947.96243,1264.5 2951,1264.5 C2954.03757,1264.5 2956.5,1266.96243 2956.5,1270 L2956.5,2371 C2956.5,2373.20717 2955.18055,2375.20055 2953.14881,2376.06287 L2005.44231,2778.29265 L2013.44391,2797.14547 C2014.2033,2798.93471 2013.36845,2801.00078 2011.57922,2801.76018 C2011.07627,2801.97364 2010.53053,2802.06707 2009.98522,2802.03307 L1952.0043,2798.41824 C1950.06435,2798.2973 1948.58975,2796.62661 1948.7107,2794.68665 C1948.75808,2793.92663 1949.05069,2793.20248 1949.54461,2792.6229 L1987.22503,2748.40706 C1988.48576,2746.92767 1990.70707,2746.7504 1992.18646,2748.01113 C1992.60231,2748.36552 1992.92994,2748.81186 1993.1434,2749.3148 L2001.1447,2768.16691 Z" fill="#99C34F" fill-rule="nonzero" opacity="0.394205729"></path>
            <path id="Line-Copy" d="M1067.80941,1077.4708 L1948.88249,709.923963 C1951.68591,708.754495 1954.90657,710.079072 1956.07604,712.88249 C1957.24551,715.685907 1955.92093,718.906568 1953.11751,720.076037 L1072.04443,1087.62288 L1079.92949,1106.52473 C1080.67783,1108.31862 1079.83024,1110.3795 1078.03635,1111.12784 C1077.5321,1111.33819 1076.98579,1111.42825 1076.4407,1111.39089 L1018.4832,1107.4182 C1016.54403,1107.28528 1015.07977,1105.60552 1015.21269,1103.66636 C1015.26477,1102.90664 1015.56185,1102.18431 1016.05933,1101.60778 L1054.01198,1057.6254 C1055.28182,1056.15381 1057.50418,1055.99027 1058.97576,1057.2601 C1059.38942,1057.61705 1059.71429,1058.0654 1059.92464,1058.56966 L1067.80941,1077.4708 Z" fill="#99C34F" fill-rule="nonzero" opacity="0.394205729"></path>
            <path id="Line-Copy" d="M2897.07463,1088.92451 L1949.00605,720.125833 C1946.17513,719.024606 1944.77294,715.83697 1945.87417,713.006051 C1946.97539,710.175131 1950.16303,708.772939 1952.99395,709.874167 L2901.06253,1078.67284 L2908.48748,1059.58556 C2909.19215,1057.77407 2911.2319,1056.87682 2913.04338,1057.58149 C2913.55259,1057.77957 2914.00868,1058.09348 2914.37554,1058.49837 L2953.38229,1101.54866 C2954.6874,1102.98905 2954.57772,1105.21472 2953.13733,1106.51983 C2952.57302,1107.03113 2951.85809,1107.34562 2951.09986,1107.41608 L2893.25558,1112.79131 C2891.3202,1112.97116 2889.60547,1111.54801 2889.42563,1109.61263 C2889.37507,1109.06861 2889.45188,1108.52028 2889.64995,1108.01108 L2897.07463,1088.92451 Z" fill="#99C34F" fill-rule="nonzero" opacity="0.394205729"></path>
            <path id="Line-Copy" d="M2507.98798,3427.03876 C3221.78736,3481.1269 3700.7667,3360.20646 3945.26411,3064.99183 C4122.66801,2850.78822 4210.38226,2551.40131 4214.42515,2193.27346 C4217.99135,1877.37215 4155.52547,1525.16935 4042.78348,1187.74296 C3902.81227,768.822046 3372.77815,585.284872 2451.31705,638.490854 C2448.28453,638.665954 2445.68425,636.349562 2445.50915,633.317047 C2445.33405,630.284532 2447.65044,627.684246 2450.68295,627.509146 C3376.55518,574.048461 3911.18773,759.177954 4053.21652,1184.25704 C4166.32688,1522.78591 4229.00542,1876.18778 4225.42445,2193.39763 C4221.35537,2553.84594 4132.93773,2855.63367 3953.73589,3072.00817 C3706.45349,3370.5855 3224.12519,3492.34535 2507.08916,3438.00218 L2505.41304,3458.44675 C2505.25422,3460.38396 2503.55504,3461.82564 2501.61782,3461.66682 C2501.07328,3461.62218 2500.5466,3461.45136 2500.07951,3461.1679 L2450.41569,3431.02892 C2448.75401,3430.02052 2448.22443,3427.85599 2449.23284,3426.19431 C2449.6279,3425.54331 2450.22346,3425.03801 2450.93011,3424.75425 L2504.83959,3403.10658 C2506.64332,3402.38228 2508.69269,3403.25734 2509.41699,3405.06106 C2509.62059,3405.56809 2509.70334,3406.11555 2509.65869,3406.66009 L2507.98798,3427.03876 Z" fill="#99C34F" fill-rule="nonzero" opacity="0.394205729"></path>
            <path id="Line-2" d="M2516.14926,78.2367193 C2724.25861,93.4672309 2829.5,186.890556 2829.5,357.5 C2829.5,544.939775 2702.32238,639 2451,639 L2445,639 L2445,627 L2451,627 C2696.34428,627 2817.5,537.393558 2817.5,357.5 C2817.5,193.889736 2717.71337,105.138081 2515.7734,90.241191 L2514.96717,115.98729 L2452,82 L2516.97013,52.0186404 L2516.1492,78.236715 Z" fill="#979797" fill-rule="nonzero" opacity="0.19594029"></path>
            <path id="Line-3" d="M468.15142,2318.46618 C354.750884,2373.48395 278.46898,2430.26741 239.288215,2488.56536 C200.00707,2547.01266 198.007235,2606.94389 233.28679,2669.29138 C309.105379,2803.28112 716.2556,2871.5 1452,2871.5 L1457.5,2871.5 L1457.5,2882.5 L1452,2882.5 C711.077734,2882.5 302.561288,2814.05221 223.71321,2674.70862 C186.393175,2608.75511 188.542255,2544.35129 230.158527,2482.4295 C270.642604,2422.19232 348.452408,2364.28724 463.570404,2308.46248 L453.529207,2286.53519 L519.454601,2288.79182 L478.094055,2340.17816 L468.151436,2318.46617 Z" fill="#979797" fill-rule="nonzero" opacity="0.19594029"></path>
            <path id="Line-3-Copy" d="M3497.56587,1221.77827 C3649.15103,1383.16267 3711.57131,1689.66488 3685.49085,2141.31707 C3656.95274,2635.53007 3244.88878,2882.5 2452,2882.5 L2446.5,2882.5 L2446.5,2871.5 L2452,2871.5 C3239.77788,2871.5 3646.3806,2627.80326 3674.50915,2140.68293 C3700.3998,1692.31773 3638.71212,1388.71485 3490.10787,1229.90634 L3474.15985,1247.2872 L3450.63159,1185.66196 L3514.04874,1203.8145 L3497.56587,1221.77827 Z" fill="#979797" fill-rule="nonzero" opacity="0.19594029"></path>
            <text id="login-authenticate(…" font-family="AndaleMono, Andale Mono" font-size="61" font-weight="normal" letter-spacing="0.7870969" fill="#000000">
                <tspan x="1858.01737" y="349">login</tspan>
                <tspan x="1671.0521" y="417">authenticate(…)</tspan>
            </text>
            <text id="invalid-credentials/" font-family="AndaleMono, Andale Mono" font-size="61" font-weight="normal" letter-spacing="0.7870969" fill="#000000">
                <tspan x="2471.06946" y="349">invalid credentials/</tspan>
                <tspan x="2452.37293" y="417">token failure/failure</tspan>
            </text>
            <text id="two-factor-required" font-family="AndaleMono, Andale Mono" font-size="61" font-weight="normal" letter-spacing="0.7870969" fill="#000000">
                <tspan x="665.265988" y="862">two factor required</tspan>
                <tspan x="590.47988" y="930">prepareAuthChallenge(…)</tspan>
            </text>
            <text id="methodSelected-selec" font-family="AndaleMono, Andale Mono" font-size="61" font-weight="normal" letter-spacing="0.7870969" fill="#000000">
                <tspan x="757.248622" y="1447">methodSelected</tspan>
                <tspan x="495.497245" y="1515">selectAuthChallengeMethod(…)</tspan>
            </text>
            <text id="code-sent" font-family="AndaleMono, Andale Mono" font-size="61" font-weight="normal" letter-spacing="0.7870969" fill="#000000">
                <tspan x="850.231257" y="2033">code sent</tspan>
            </text>
            <text id="submit-code-twoFacto" font-family="AndaleMono, Andale Mono" font-size="61" font-weight="normal" letter-spacing="0.7870969" fill="#000000">
                <tspan x="813.338203" y="2604">submit code</tspan>
                <tspan x="701.159042" y="2672">twoFactorLogin(…)</tspan>
            </text>
            <text id="invalid-code" font-family="AndaleMono, Andale Mono" font-size="61" font-weight="normal" letter-spacing="0.7870969" fill="#000000">
                <tspan x="0.141676413" y="2625">invalid code</tspan>
            </text>
            <text id="invalid-code" font-family="AndaleMono, Andale Mono" font-size="61" font-weight="normal" letter-spacing="0.7870969" fill="#000000">
                <tspan x="3451.14168" y="2090">invalid code</tspan>
            </text>
            <text id="success" font-family="AndaleMono, Andale Mono" font-size="61" font-weight="normal" letter-spacing="0.7870969" fill="#000000">
                <tspan x="4049.62431" y="2469">success</tspan>
            </text>
            <text id="success" font-family="AndaleMono, Andale Mono" font-size="61" font-weight="normal" letter-spacing="0.7870969" fill="#000000">
                <tspan x="1820.12431" y="3180">success</tspan>
            </text>
            <text id="challenge-required" font-family="AndaleMono, Andale Mono" font-size="61" font-weight="normal" letter-spacing="0.7870969" fill="#000000">
                <tspan x="2614.46251" y="952">challenge required</tspan>
            </text>
            <text id="submit-code-submitCh" font-family="AndaleMono, Andale Mono" font-size="61" font-weight="normal" letter-spacing="0.7870969" fill="#000000">
                <tspan x="2745.8382" y="1502">submit code</tspan>
                <tspan x="2540.17641" y="1570">submitChallengeCode(…)</tspan>
            </text>
        </g>
    </g>
</svg>