<?xml version="1.0" encoding="UTF-8"?>
<svg width="627px" height="144px" viewBox="0 0 627 144" version="1.1" xmlns="http://www.w3.org/2000/svg" xmlns:xlink="http://www.w3.org/1999/xlink">
    <!-- Generator: Sketch 52.6 (67491) - http://www.bohemiancoding.com/sketch -->
    <title>Artboard</title>
    <desc>Created with Sketch.</desc>
    <defs>
        <linearGradient x1="93.8004765%" y1="-30.538822%" x2="0%" y2="274.553222%" id="linearGradient-1">
            <stop stop-color="#C5338D" offset="0%"></stop>
            <stop stop-color="#F89C4A" offset="100%"></stop>
        </linearGradient>
    </defs>
    <g id="Artboard" stroke="none" stroke-width="1" fill="none" fill-rule="evenodd">
        <path d="M500,61.3 C498.399992,60.699997 496.466678,60.4 494.2,60.4 C491.933322,60.4 490.116673,60.9166615 488.75,61.95 C487.383327,62.9833385 486.7,64.2499925 486.7,65.75 C486.7,67.2500075 486.949997,68.4166625 487.45,69.25 C487.950002,70.0833375 488.733328,70.799997 489.8,71.4 C491.466675,72.266671 493.466655,73.0166635 495.8,73.65 C498.133345,74.2833365 499.866661,74.7833315 501,75.15 C502.133339,75.5166685 503.549992,76.133329 505.25,77 C506.950009,77.866671 508.233329,78.799995 509.1,79.8 C511.433345,82.266679 512.6,85.433314 512.6,89.3 C512.6,94.300025 510.783351,98.2166525 507.15,101.05 C503.516648,103.883347 498.900028,105.3 493.3,105.3 C485.166626,105.3 479.033354,104.266677 474.9,102.2 L474.9,88.3 L483.9,87.6 L483.9,92.4 C483.9,95.333348 486.699972,96.8 492.3,96.8 C497.900028,96.8 500.7,94.766687 500.7,90.7 C500.7,89.233326 500.216672,88.033338 499.25,87.1 C498.283328,86.166662 497.333338,85.533335 496.4,85.2 C495.466662,84.866665 494.350007,84.533335 493.05,84.2 C491.749994,83.866665 490.483339,83.533335 489.25,83.2 C488.016661,82.866665 486.68334,82.4166695 485.25,81.85 C483.81666,81.2833305 482.233342,80.466672 480.5,79.4 C477.099983,77.199989 475.4,73.5166925 475.4,68.35 C475.4,63.1833075 477.233315,59.200014 480.9,56.4 C484.566685,53.599986 489.183306,52.2 494.75,52.2 C500.316694,52.2 505.833306,53.53332 511.3,56.2 L511.3,68.2 L502.3,68.9 L502.3,64.7 C502.3,63.033325 501.533341,61.900003 500,61.3 Z M544,52.2 C546.866681,52.2 549.599987,52.599996 552.2,53.4 L552.2,43.3 C552.2,41.833326 551.333342,41.033334 549.6,40.9 L545.3,40.6 L545.3,32.7 L563.9,32.7 L563.9,93.5 C563.966667,95.033341 564.799992,95.8 566.4,95.8 L569.9,96 L569.9,104 L553.7,104 L553.7,98.1 L553.4,98 C550.399985,102.866691 545.866697,105.3 539.8,105.3 C532.199962,105.3 526.866682,102.766692 523.8,97.7 C520.999986,93.099977 519.6,87.4667 519.6,80.8 C519.6,72.13329 521.749978,65.200026 526.05,60 C530.350022,54.799974 536.333295,52.2 544,52.2 Z M552.2,88.4 L552.2,62.5 C549.799988,61.433328 547.26668,60.9 544.6,60.9 C540.199978,60.9 536.983344,62.666649 534.95,66.2 C532.916657,69.733351 531.9,74.233306 531.9,79.7 C531.9,90.900056 535.499964,96.5 542.7,96.5 C545.433347,96.5 547.699991,95.7166745 549.5,94.15 C551.300009,92.5833255 552.2,90.666678 552.2,88.4 Z M581.9,92.8 L581.9,44.1 C581.9,43.033328 581.716668,42.300002 581.35,41.9 C580.983331,41.499998 580.333338,41.266667 579.4,41.2 L575.9,41 L575.9,32.7 L593.7,32.7 L593.7,76 C597.366685,75.666665 600.566653,74.533343 603.3,72.6 C606.033347,70.666657 607.899995,68.133349 608.9,65 C609.100001,64.33333 609.2,63.800002 609.2,63.4 C609.2,62.266661 608.566673,61.7 607.3,61.7 L603.5,61.5 L603.5,53.7 L624.2,53.7 L624.2,61.8 L619.4,62 C618.533329,68.800034 615.600025,74.166647 610.6,78.1 L620.4,95.7 L626.5,96 L626.5,104 L611.9,104 L600.5,83.2 C598.299989,83.800003 596.033345,84.266665 593.7,84.6 L593.7,95.7 L593.8,95.7 L599.5,96 L599.5,104 L575.7,104 L575.7,96.4 L579,96.1 C580.000005,95.966666 580.733331,95.6833355 581.2,95.25 C581.666669,94.8166645 581.9,94.000006 581.9,92.8 Z" id="sdk" fill="url(#linearGradient-1)"></path>
        <path d="M18.4,53.7 L18.4,95.7 L24.1,96 L24.1,104 L0.3,104 L0.3,96.4 L3.6,96.1 C5.533343,95.899999 6.5,94.833343 6.5,92.9 L6.5,65.1 C6.5,63.966661 6.3166685,63.200002 5.95,62.8 C5.5833315,62.399998 4.933338,62.2 4,62.2 L0.5,62 L0.5,53.7 L18.4,53.7 Z M5.8,45.1 C4.399993,43.699993 3.7,41.933344 3.7,39.8 C3.7,37.666656 4.399993,35.8833405 5.8,34.45 C7.200007,33.0166595 9.033322,32.3 11.3,32.3 C13.566678,32.3 15.4166595,33.0166595 16.85,34.45 C18.2833405,35.8833405 19,37.666656 19,39.8 C19,41.933344 18.2833405,43.6833265 16.85,45.05 C15.4166595,46.4166735 13.566678,47.1 11.3,47.1 C9.033322,47.1 7.200007,46.43334 5.8,45.1 Z M29.3,61.7 L29.3,53.7 L46.2,53.7 L46.2,60.2 C47.933342,57.733321 50.233319,55.7833405 53.1,54.35 C55.966681,52.9166595 59.06665,52.2 62.4,52.2 C67.466692,52.2 71.3833195,53.6499855 74.15,56.55 C76.9166805,59.4500145 78.3,63.799971 78.3,69.6 L78.3,95.7 L84,96 L84,104 L60.2,104 L60.2,96.4 L63.5,96.1 C64.500005,95.966666 65.233331,95.6833355 65.7,95.25 C66.166669,94.8166645 66.4,94.000006 66.4,92.8 L66.4,72.2 C66.4,68.533315 65.833339,65.8166755 64.7,64.05 C63.566661,62.2833245 61.4166825,61.4 58.25,61.4 C55.0833175,61.4 52.566676,62.39999 50.7,64.4 C48.833324,66.40001 47.9,68.766653 47.9,71.5 L47.9,95.7 L53.6,96 L53.6,104 L29.8,104 L29.8,96.4 L33.1,96.1 C34.100005,95.966666 34.833331,95.6833355 35.3,95.25 C35.766669,94.8166645 36,94.000006 36,92.8 L36,65.1 C36,63.09999 35.166675,62.066667 33.5,62 L29.3,61.7 Z M116.1,61.3 C114.499992,60.699997 112.566678,60.4 110.3,60.4 C108.033322,60.4 106.216673,60.9166615 104.85,61.95 C103.483326,62.9833385 102.8,64.2499925 102.8,65.75 C102.8,67.2500075 103.049997,68.4166625 103.55,69.25 C104.050002,70.0833375 104.833328,70.799997 105.9,71.4 C107.566675,72.266671 109.566655,73.0166635 111.9,73.65 C114.233345,74.2833365 115.966661,74.7833315 117.1,75.15 C118.233339,75.5166685 119.649991,76.133329 121.35,77 C123.050008,77.866671 124.333329,78.799995 125.2,79.8 C127.533345,82.266679 128.7,85.433314 128.7,89.3 C128.7,94.300025 126.883351,98.2166525 123.25,101.05 C119.616648,103.883347 115.000028,105.3 109.4,105.3 C101.266626,105.3 95.133354,104.266677 91,102.2 L91,88.3 L100,87.6 L100,92.4 C100,95.333348 102.799972,96.8 108.4,96.8 C114.000028,96.8 116.8,94.766687 116.8,90.7 C116.8,89.233326 116.316671,88.033338 115.35,87.1 C114.383328,86.166662 113.433338,85.533335 112.5,85.2 C111.566662,84.866665 110.450006,84.533335 109.15,84.2 C107.849993,83.866665 106.583339,83.533335 105.35,83.2 C104.11666,82.866665 102.78334,82.4166695 101.35,81.85 C99.9166595,81.2833305 98.333342,80.466672 96.6,79.4 C93.199983,77.199989 91.5,73.5166925 91.5,68.35 C91.5,63.1833075 93.333315,59.200014 97,56.4 C100.666685,53.599986 105.283305,52.2 110.85,52.2 C116.416694,52.2 121.933306,53.53332 127.4,56.2 L127.4,68.2 L118.4,68.9 L118.4,64.7 C118.4,63.033325 117.633341,61.900003 116.1,61.3 Z M146.1,43.1 L152.6,43.1 L152.6,53.7 L165.9,53.7 L164.9,62.1 L152.6,62.1 L152.6,88.4 C152.6,91.333348 153.133328,93.3833275 154.2,94.55 C155.266672,95.7166725 156.916656,96.3 159.15,96.3 C161.383345,96.3 163.633322,95.600007 165.9,94.2 L168.9,101.9 C165.56665,104.233345 161.333359,105.4 156.2,105.4 C153.199985,105.4 150.666677,105.016671 148.6,104.25 C146.533323,103.483329 145.000005,102.633338 144,101.7 C142.999995,100.766662 142.233336,99.400009 141.7,97.6 C141.166664,95.799991 140.866667,94.3833385 140.8,93.35 C140.733333,92.3166615 140.7,90.80001 140.7,88.8 L140.7,62.1 L133.6,62.1 L134.6,54.8 C137.733349,54.533332 140.099992,53.4166765 141.7,51.45 C143.300008,49.4833235 144.76666,46.700018 146.1,43.1 Z M217.6,55.7 L217.6,92.9 C217.6,93.966672 217.783331,94.699998 218.15,95.1 C218.516668,95.500002 219.166662,95.733333 220.1,95.8 L223.3,96 L223.3,104 L207.4,104 L207.4,98.2 L207.1,98.1 C203.76665,102.900024 199.200029,105.3 193.4,105.3 C186.599966,105.3 181.566683,103.133355 178.3,98.8 C175.033317,94.466645 173.4,88.533371 173.4,81 C173.4,71.933288 175.599978,64.866692 180,59.8 C184.400022,54.733308 190.999956,52.2 199.8,52.2 C205.466695,52.2 211.399969,53.366655 217.6,55.7 Z M206,88.1 L206,62.2 C204.133324,61.333329 201.566683,60.9 198.3,60.9 C193.833311,60.9 190.60001,62.699982 188.6,66.3 C186.59999,69.900018 185.6,74.666637 185.6,80.6 C185.6,91.400054 189.066632,96.8 196,96.8 C198.933348,96.8 201.333324,95.9166755 203.2,94.15 C205.066676,92.3833245 206,90.366678 206,88.1 Z M273.9,103.9 C273.299997,111.300037 271.166685,116.733316 267.5,120.2 C263.833315,123.666684 258.100039,125.4 250.3,125.4 C242.499961,125.4 236.400022,124.300011 232,122.1 L232,108.2 L241.5,107.4 L241.5,112.2 C241.5,114.000009 242.333325,115.216663 244,115.85 C245.666675,116.483337 247.966652,116.8 250.9,116.8 C255.166688,116.8 258.166658,115.51668 259.9,112.95 C261.633342,110.38332 262.5,106.76669 262.5,102.1 L262.5,96.6 C259.299984,100.333352 254.866695,102.2 249.2,102.2 C245.733316,102.2 242.683346,101.53334 240.05,100.2 C237.416653,98.86666 235.366674,97.066678 233.9,94.8 C231.033319,90.266644 229.6,84.933364 229.6,78.8 C229.6,70.066623 231.966643,63.4500225 236.7,58.95 C241.433357,54.4499775 247.733294,52.2 255.6,52.2 C262.133366,52.2 268.299971,53.433321 274.1,55.9 L274.1,93 C274.1,98.666695 274.033334,102.299992 273.9,103.9 Z M262.5,83.6 L262.5,62.1 C260.166655,61.299996 257.500015,60.9 254.5,60.9 C250.433313,60.9 247.316677,62.399985 245.15,65.4 C242.983322,68.400015 241.9,72.466641 241.9,77.6 C241.9,88.133386 245.366632,93.4 252.3,93.4 C255.166681,93.4 257.583323,92.5166755 259.55,90.75 C261.516676,88.9833245 262.5,86.600015 262.5,83.6 Z M290,92.8 L290,65.1 C290,64.033328 289.816668,63.2833355 289.45,62.85 C289.083331,62.4166645 288.433338,62.166667 287.5,62.1 L283.3,61.8 L283.3,53.7 L300.2,53.7 L300.2,61.2 C301.400006,58.599987 303.266654,56.4500085 305.8,54.75 C308.333346,53.0499915 311.249984,52.2 314.55,52.2 C317.850016,52.2 320.999985,52.933326 324,54.4 L324,69.3 L314.7,70 L314.7,65.4 C314.7,64.06666 314.36667,63.233335 313.7,62.9 C312.966663,62.566665 312.066672,62.4 311,62.4 C308.33332,62.4 306.150009,63.3499905 304.45,65.25 C302.749991,67.1500095 301.9,69.566652 301.9,72.5 L301.9,95.7 L310.6,96.1 L310.6,104 L283.8,104 L283.8,96.4 L287.1,96.1 C288.100005,95.966666 288.833331,95.6833355 289.3,95.25 C289.766669,94.8166645 290,94.000006 290,92.8 Z M374.9,55.7 L374.9,92.9 C374.9,93.966672 375.083331,94.699998 375.45,95.1 C375.816668,95.500002 376.466662,95.733333 377.4,95.8 L380.6,96 L380.6,104 L364.7,104 L364.7,98.2 L364.4,98.1 C361.06665,102.900024 356.500029,105.3 350.7,105.3 C343.899966,105.3 338.866683,103.133355 335.6,98.8 C332.333317,94.466645 330.7,88.533371 330.7,81 C330.7,71.933288 332.899978,64.866692 337.3,59.8 C341.700022,54.733308 348.299956,52.2 357.1,52.2 C362.766695,52.2 368.699969,53.366655 374.9,55.7 Z M363.3,88.1 L363.3,62.2 C361.433324,61.333329 358.866683,60.9 355.6,60.9 C351.133311,60.9 347.90001,62.699982 345.9,66.3 C343.89999,69.900018 342.9,74.666637 342.9,80.6 C342.9,91.400054 346.366632,96.8 353.3,96.8 C356.233348,96.8 358.633324,95.9166755 360.5,94.15 C362.366676,92.3833245 363.3,90.366678 363.3,88.1 Z M386.1,61.8 L386.1,53.7 L403,53.7 L403,60.2 C406.733352,54.86664 411.849967,52.2 418.35,52.2 C424.850032,52.2 429.233322,54.86664 431.5,60.2 C435.233352,54.86664 440.299968,52.2 446.7,52.2 C451.500024,52.2 455.199987,53.6499855 457.8,56.55 C460.400013,59.4500145 461.7,63.799971 461.7,69.6 L461.7,95.7 L467.4,96 L467.4,104 L443.6,104 L443.6,96.4 L446.9,96.1 C447.900005,95.966666 448.616664,95.6833355 449.05,95.25 C449.483336,94.8166645 449.733333,94.033339 449.8,92.9 L449.8,72.2 C449.8,68.533315 449.383337,65.8166755 448.55,64.05 C447.716662,62.2833245 445.766682,61.4 442.7,61.4 C439.633318,61.4 437.283342,62.333324 435.65,64.2 C434.016658,66.066676 433.2,68.566651 433.2,71.7 L433.2,95.7 L438.7,96 L438.7,104 L415.1,104 L415.1,96.4 L418.4,96.1 C419.400005,95.966666 420.133331,95.6833355 420.6,95.25 C421.066669,94.8166645 421.3,94.000006 421.3,92.8 L421.3,72.2 C421.3,68.533315 420.883337,65.8166755 420.05,64.05 C419.216662,62.2833245 417.250015,61.4 414.15,61.4 C411.049984,61.4 408.700008,62.366657 407.1,64.3 C405.499992,66.233343 404.7,68.633319 404.7,71.5 L404.7,95.7 L410.1,96 L410.1,104 L386.5,104 L386.5,96.4 L389.8,96.1 C390.800005,95.966666 391.533331,95.6833355 392,95.25 C392.466669,94.8166645 392.7,94.000006 392.7,92.8 L392.8,92.8 L392.8,65.2 C392.8,64.066661 392.616668,63.2833355 392.25,62.85 C391.883331,62.4166645 391.233338,62.166667 390.3,62.1 L386.1,61.8 Z" id="instagram" fill="#373737"></path>
    </g>
</svg>